<svg xmlns="http://www.w3.org/2000/svg" viewBox="0 0 41.32 48.43"><defs><style>.cls-1{fill:#fff;}.cls-2{fill:#010101;}</style></defs><title>Asset 5</title><g id="Layer_2" data-name="Layer 2"><g id="Layer_1-2" data-name="Layer 1"><polygon class="cls-1" points="20.66 20.6 20.66 47.78 0.65 39.39 0.65 12.21 20.66 20.6"/><path class="cls-2" d="M20.67,48.43a.64.64,0,0,1-.25-.05L.4,40a.65.65,0,0,1-.4-.6V12.2a.65.65,0,0,1,.9-.6l20,8.39a.65.65,0,0,1,.4.6V47.78a.65.65,0,0,1-.65.65ZM1.3,39,20,46.8V21L1.3,13.18Z"/><polygon class="cls-1" points="40.67 12.21 40.67 39.39 20.66 47.78 20.66 20.6 40.67 12.21"/><path class="cls-2" d="M20.67,48.43a.65.65,0,0,1-.65-.65V20.6a.65.65,0,0,1,.4-.6l20-8.39a.65.65,0,0,1,.9.6V39.39a.65.65,0,0,1-.4.6l-20,8.39A.64.64,0,0,1,20.67,48.43ZM21.32,21V46.8L40,39V13.18Z"/><polygon class="cls-1" points="20.66 4.36 0.65 12.21 20.66 20.6 40.67 12.21 20.66 4.36"/><path class="cls-2" d="M20.67,21.25a.65.65,0,0,1-.25-.05L.4,12.8a.65.65,0,0,1,0-1.21l20-7.84a.65.65,0,0,1,.48,0l20,7.84a.65.65,0,0,1,0,1.21l-20,8.39A.65.65,0,0,1,20.67,21.25Zm-18.28-9,18.28,7.67,18.28-7.67L20.67,5.06Z"/><path class="cls-2" d="M10.85,25.59a.65.65,0,0,1-.65-.65V16.61a.65.65,0,0,1,.4-.6L30.22,7.78a.65.65,0,0,1,.5,1.2L11.5,17v7.9A.65.65,0,0,1,10.85,25.59Z"/><ellipse class="cls-1" cx="21.43" cy="6.43" rx="2.45" ry="5.78"/><path class="cls-2" d="M21.43,12.86c-2,0-3.1-3.31-3.1-6.43S19.42,0,21.43,0s3.1,3.31,3.1,6.43S23.45,12.86,21.43,12.86Zm0-11.55c-.73,0-1.8,2-1.8,5.13s1.07,5.13,1.8,5.13,1.8-2,1.8-5.13S22.17,1.3,21.43,1.3Z"/><ellipse class="cls-1" cx="17.65" cy="7.19" rx="2.45" ry="5.78" transform="matrix(0.84, -0.55, 0.55, 0.84, -1.05, 10.9)"/><path class="cls-2" d="M20.17,12.86c-1.63,0-3.71-1.83-5.1-4-1.71-2.6-2.63-6-.95-7.07.78-.51,1.88-.35,3.1.46a11.44,11.44,0,0,1,3,3.2,11.45,11.45,0,0,1,1.74,4c.26,1.44,0,2.51-.8,3A1.82,1.82,0,0,1,20.17,12.86Zm-5-10a.56.56,0,0,0-.31.08c-.61.4-.4,2.66,1.32,5.27s3.71,3.7,4.32,3.29h0c.3-.2.39-.85.23-1.71A10.15,10.15,0,0,0,19.16,6.2a10.14,10.14,0,0,0-2.66-2.83A2.72,2.72,0,0,0,15.15,2.83Z"/><line class="cls-1" x1="21.43" y1="12.2" x2="27.87" y2="18.64"/><path class="cls-2" d="M27.87,19.29a.65.65,0,0,1-.46-.19L21,12.66a.65.65,0,1,1,.92-.92l6.44,6.43a.65.65,0,0,1-.46,1.11Z"/><polygon class="cls-1" points="23.05 17.61 23.05 13.82 26.84 13.82 34.66 21.65 30.38 21.16 30.88 25.43 23.05 17.61"/><path class="cls-2" d="M30.88,26.09a.65.65,0,0,1-.46-.19l-7.83-7.83a.65.65,0,0,1-.19-.46V13.82a.65.65,0,0,1,.65-.65h3.78a.65.65,0,0,1,.46.19l7.83,7.83a.65.65,0,0,1,.13.74.64.64,0,0,1-.66.36l-3.46-.4.4,3.46a.65.65,0,0,1-.65.73ZM23.7,17.34,30,23.65l-.28-2.42a.65.65,0,0,1,.19-.54.63.63,0,0,1,.54-.19l2.42.28-6.32-6.31H23.7Z"/></g></g></svg>